<svg width="37" height="37" xmlns="http://www.w3.org/2000/svg"><g fill="none"><circle fill="#D34004" cx="18.5" cy="18.5" r="18.5"/><path d="M26.528 15.25H25.11v-1.833C25.111 9.878 22.145 7 18.5 7c-3.645 0-6.611 2.878-6.611 6.417v1.833h-1.417a.465.465 0 00-.472.458v11.459c0 1.01.847 1.833 1.889 1.833H25.11c1.043 0 1.89-.822 1.89-1.833V15.708a.465.465 0 00-.472-.458zm-6.912 6.974l.298 2.6a.45.45 0 01-.118.357.479.479 0 01-.352.152h-1.888a.479.479 0 01-.352-.152.45.45 0 01-.118-.357l.298-2.6a1.797 1.797 0 01-.773-1.474c0-1.011.847-1.833 1.889-1.833s1.889.822 1.889 1.833c0 .593-.29 1.133-.773 1.474zm2.662-6.974h-7.556v-1.833c0-2.022 1.695-3.667 3.778-3.667s3.778 1.645 3.778 3.667v1.833z" fill="#FFF"/></g></svg>