<svg width="300" height="28" viewBox="0 0 300 28" fill="none" xmlns="http://www.w3.org/2000/svg">
<path d="M5.55354 26.0254C5.98911 25.9165 6.2069 25.8076 6.42468 25.5898C6.64247 25.372 6.75136 25.1542 6.86025 24.7187C6.96915 24.2831 7.07804 23.7386 7.07804 22.9764C7.07804 22.2141 7.07804 21.1252 7.07804 19.8185V0.980018H6.75136C5.77133 0.980018 4.90018 1.08891 4.24682 1.1978C3.48457 1.3067 2.94011 1.63338 2.50454 1.96005C1.96007 2.28673 1.63339 2.7223 1.30671 3.37566C1.08893 4.02902 0.762251 4.79127 0.544465 5.66241H0L0.326679 1.41559C0.326679 0.871125 0.435572 0.544446 0.544465 0.435553C0.653358 0.32666 0.871143 0.32666 1.19782 0.32666H16.7695C17.0962 0.32666 17.314 0.32666 17.4229 0.435553C17.5318 0.544446 17.6407 0.871125 17.6407 1.41559L17.9673 5.66241H17.4229C17.2051 4.68238 16.9873 3.92013 16.6606 3.37566C16.3339 2.7223 16.0073 2.28673 15.4628 1.96005C15.0272 1.63338 14.3739 1.41559 13.7205 1.1978C13.0672 1.08891 12.196 0.980018 11.1071 0.980018H10.8893V19.8185C10.8893 21.1252 10.8893 22.2141 10.8893 22.9764C10.8893 23.7386 10.9982 24.2831 11.1071 24.7187C11.216 25.1542 11.3249 25.372 11.5427 25.5898C11.7604 25.8076 11.9782 25.9165 12.4138 26.0254V26.461H5.44465L5.55354 26.0254Z" fill="black"/>
<path d="M19.7096 26.0254C21.4519 25.5898 21.5608 25.0454 21.5608 18.4029V8.60255C21.5608 1.96008 21.4519 1.41561 19.7096 0.980042V0.435577H27.2232V0.871149C25.481 1.30672 25.3721 1.85119 25.3721 8.49365V11.8693H37.3503V8.60255C37.3503 1.96008 37.2414 1.41561 35.4991 0.980042V0.435577H43.0127V0.871149C41.2704 1.30672 41.1615 1.85119 41.1615 8.49365V18.294C41.1615 24.9365 41.2704 25.481 43.0127 25.9165V26.3521H35.4991V25.9165C37.2414 25.481 37.3503 24.9365 37.3503 18.294V12.4138H25.3721V18.294C25.3721 24.9365 25.481 25.481 27.2232 25.9165V26.3521H19.7096V26.0254V26.0254Z" fill="black"/>
<path d="M45.735 25.9165C46.1706 25.8076 46.3884 25.6987 46.6062 25.4809C46.824 25.2632 46.9329 25.0454 47.0417 24.6098C47.1506 24.1742 47.2595 23.6298 47.2595 22.8675C47.2595 22.1053 47.2595 21.0163 47.2595 19.7096V7.07805C47.2595 5.77133 47.2595 4.6824 47.2595 3.92015C47.2595 3.1579 47.1506 2.61344 47.0417 2.17786C46.9329 1.74229 46.824 1.52451 46.6062 1.30672C46.3884 1.08893 46.0617 0.980042 45.735 0.871149V0.435577H59.2378C59.4555 0.435577 59.6733 0.435577 59.7822 0.54447C59.8911 0.653363 60 0.980042 60.1089 1.52451L60.7623 5.22687H60.1089C59.7822 4.35572 59.4555 3.70236 59.1289 3.1579C58.8022 2.61344 58.3666 2.17786 57.931 1.96008C57.4955 1.6334 56.8421 1.41561 56.1888 1.30672C55.5354 1.19783 54.6643 1.08893 53.6842 1.08893H51.1797V11.6515H51.3975C52.2686 11.6515 53.0309 11.5427 53.4664 11.4338C53.902 11.3249 54.3376 11.1071 54.6643 10.8893C54.9909 10.6715 55.0998 10.3448 55.2087 10.0182C55.3176 9.69147 55.4265 9.2559 55.5354 8.92922H55.971V15.1361H55.5354C55.4265 14.7005 55.3176 14.3739 55.2087 14.0472C55.0998 13.7205 54.882 13.3938 54.6643 13.176C54.3376 12.9583 54.0109 12.7405 53.4664 12.6316C53.0309 12.5227 52.2686 12.4138 51.3975 12.4138H51.1797V25.9165H54.2287C55.3176 25.9165 56.1888 25.8076 56.951 25.6987C57.7133 25.5898 58.2577 25.3721 58.8022 25.0454C59.3466 24.7187 59.7822 24.1742 60.1089 23.6298C60.4356 23.0853 60.7623 22.2142 61.0889 21.2341H61.7423L61.3067 25.3721C61.3067 25.9165 61.1978 26.2432 60.98 26.3521C60.8711 26.461 60.5445 26.461 60.2178 26.461H45.735V25.9165Z" fill="black"/>
<path d="M81.4519 26.8966C80.2541 26.8966 79.274 26.7877 78.4029 26.5699C77.6406 26.3521 76.8784 26.1343 76.3339 25.9165C75.7894 25.6987 75.245 25.4809 74.7005 25.2632C74.2649 25.0454 73.7205 24.9365 73.176 24.9365C72.7404 24.9365 72.4138 25.1543 72.196 25.6987H71.6515V19.1652H72.196C72.6316 21.4519 73.6116 23.1942 75.245 24.5009C76.8784 25.8076 78.9473 26.461 81.4519 26.461C83.7386 26.461 85.372 26.0254 86.461 25.0454C87.5499 24.0653 88.0943 22.7586 88.0943 21.1252C88.0943 20.363 87.9855 19.6007 87.7677 19.0563C87.5499 18.5118 87.1143 17.8584 86.5698 17.4229C86.0254 16.9873 85.1542 16.4428 84.1742 16.1162C83.1942 15.6806 81.8875 15.245 80.4718 14.8094C79.274 14.3739 78.1851 14.0472 77.0962 13.6116C76.1161 13.176 75.245 12.6316 74.4827 12.0871C73.7205 11.5427 73.176 10.8893 72.8493 10.127C72.5227 9.3648 72.3049 8.49365 72.3049 7.40472C72.3049 6.42469 72.5227 5.44465 72.9582 4.57351C73.3938 3.70237 74.0472 2.94011 74.8094 2.39565C75.5717 1.74229 76.4428 1.30672 77.5317 0.980042C78.6207 0.653363 79.7096 0.435577 80.9074 0.435577C81.8875 0.435577 82.7586 0.54447 83.5208 0.653363C84.2831 0.762256 84.9365 0.980042 85.4809 1.19783C86.0254 1.41561 86.5698 1.6334 86.8965 1.74229C87.2232 1.85119 87.7677 1.96008 88.0943 1.96008C88.421 1.96008 88.6388 1.96008 88.7477 1.85119C88.8566 1.74229 88.9655 1.52451 89.0744 1.30672H89.6189V6.42469H89.0744C88.5299 4.6824 87.5499 3.37569 86.1343 2.39565C84.7187 1.41561 82.9764 0.871149 80.7985 0.871149C78.8384 0.871149 77.4228 1.30672 76.4428 2.06897C75.3539 2.83122 74.9183 4.02904 74.9183 5.33576C74.9183 5.88022 75.0272 6.42469 75.245 6.86026C75.4628 7.29583 75.7894 7.8403 76.3339 8.27587C76.8784 8.71144 77.5317 9.14701 78.5118 9.58258C79.3829 10.0182 80.5807 10.4537 81.8874 10.7804C83.1942 11.216 84.5009 11.5427 85.5898 11.9782C86.7876 12.4138 87.7677 12.9583 88.5299 13.6116C89.4011 14.265 90.0544 14.9183 90.49 15.6806C90.9256 16.4428 91.2522 17.4229 91.2522 18.6207C91.2522 19.8185 91.0345 21.0163 90.49 22.1053C90.0544 23.1942 89.2922 24.0653 88.5299 24.7187C87.6588 25.4809 86.6787 26.0254 85.4809 26.3521C84.2831 26.5699 82.9764 26.7877 81.4519 26.8966Z" fill="black"/>
<path d="M101.053 26.0254C101.488 25.8076 101.924 25.5898 102.25 25.4809C102.577 25.2632 102.686 24.8276 102.904 24.2831C103.013 23.7387 103.122 22.8675 103.122 21.6697C103.122 20.4719 103.23 18.9474 103.23 17.0962V1.08893H101.379C100.181 1.08893 99.2015 1.08893 98.4392 1.19783C97.5681 1.30672 96.9147 1.52451 96.2613 1.85119C95.7169 2.17786 95.1724 2.72233 94.8457 3.37569C94.4102 4.13794 94.0835 5.00908 93.8657 6.3158H93.2123L93.6479 1.52451C93.7568 0.980042 93.7568 0.653363 93.8657 0.54447C93.9746 0.435577 94.1924 0.435577 94.5191 0.435577H115.862C116.189 0.435577 116.407 0.435577 116.515 0.54447C116.624 0.653363 116.733 0.980042 116.733 1.52451L117.278 6.3158H116.515C116.298 5.11797 115.971 4.24683 115.535 3.48458C115.1 2.83122 114.664 2.28676 114.011 1.96008C113.358 1.6334 112.704 1.41561 111.833 1.30672C110.962 1.19783 109.982 1.08893 108.893 1.08893H107.151V17.0962C107.151 19.0563 107.151 20.5808 107.26 21.6697C107.26 22.8675 107.368 23.6298 107.586 24.2831C107.695 24.8276 107.913 25.2632 108.24 25.4809C108.566 25.6987 108.893 25.8076 109.437 26.0254V26.461H101.27V26.0254H101.053Z" fill="black"/>
<path d="M124.247 26.0254C124.573 25.9165 124.9 25.8076 125.118 25.5898C125.336 25.3721 125.554 25.1543 125.554 24.7187C125.662 24.2831 125.771 23.7387 125.771 22.9764C125.771 22.2142 125.771 21.1252 125.771 19.8185V13.6116L121.524 4.79129C121.307 4.24683 121.089 3.81126 120.871 3.48458C120.653 3.04901 120.436 2.72233 120.218 2.39565C120 2.06897 119.782 1.85119 119.564 1.52451C119.347 1.30672 119.02 1.08893 118.693 0.871149V0.435577H125.336V0.871149C124.791 1.08893 124.465 1.30672 124.465 1.6334C124.356 1.96008 124.465 2.50454 124.791 3.1579L129.038 12.4138L132.414 4.79129C132.74 4.13794 132.958 3.48458 133.067 3.04901C133.176 2.61344 133.285 2.17786 133.176 1.96008C133.176 1.6334 132.958 1.41561 132.74 1.30672C132.523 1.19783 132.196 0.980042 131.652 0.871149V0.435577H135.681V0.871149C135.463 0.980042 135.245 1.08893 135.027 1.19783C134.809 1.30672 134.701 1.52451 134.483 1.74229C134.265 1.96008 134.047 2.39565 133.829 2.83122C133.612 3.26679 133.285 4.02904 132.958 4.79129L129.256 13.176V19.8185C129.256 21.1252 129.256 22.2142 129.256 22.9764C129.256 23.7387 129.365 24.2831 129.474 24.7187C129.583 25.1543 129.691 25.3721 129.909 25.5898C130.127 25.8076 130.345 25.9165 130.78 26.0254V26.461H123.92L124.247 26.0254Z" fill="black"/>
<path d="M138.076 26.0254C138.512 25.9165 138.947 25.6987 139.274 25.4809C139.601 25.2632 139.71 24.8276 139.927 24.2831C140.036 23.7387 140.145 22.8675 140.145 21.6697C140.145 20.4719 140.254 18.9474 140.254 16.9873V9.90926C140.254 7.94918 140.254 6.42468 140.254 5.22686C140.254 4.02904 140.145 3.26679 140.036 2.61343C139.927 2.06896 139.71 1.63339 139.383 1.41561C139.056 1.19782 138.73 0.980036 138.185 0.871143V0.544464H146.461V0.980036C145.917 1.08893 145.481 1.30671 145.263 1.5245C144.936 1.74229 144.828 2.17786 144.61 2.72232C144.501 3.26679 144.392 4.13793 144.283 5.33575C144.283 6.53357 144.283 8.05808 144.283 10.0181V25.9165H150.708C151.797 25.9165 152.668 25.8076 153.43 25.6987C154.192 25.5898 154.846 25.372 155.39 24.9365C155.935 24.5009 156.479 24.0653 156.806 23.3031C157.241 22.6497 157.677 21.6697 158.004 20.5808H158.657L157.786 25.372C157.786 25.5898 157.677 25.8076 157.677 25.9165C157.677 26.0254 157.568 26.1343 157.459 26.2432C157.35 26.3521 157.241 26.3521 157.132 26.3521C157.024 26.3521 156.915 26.3521 156.697 26.3521H138.294V25.9165L138.076 26.0254Z" fill="black"/>
<path d="M160.835 25.9165C161.27 25.6987 161.706 25.481 162.033 25.3721C162.359 25.1543 162.468 24.7187 162.686 24.1742C162.795 23.6298 162.904 22.7586 162.904 21.5608C162.904 20.363 163.013 18.8385 163.013 16.9873V9.90926C163.013 7.94919 163.013 6.42469 163.013 5.22687C163.013 4.13794 162.904 3.26679 162.795 2.61344C162.686 2.06897 162.468 1.6334 162.142 1.41561C161.815 1.19783 161.488 0.980042 160.944 0.871149V0.435577H180.109C180.327 0.435577 180.544 0.435577 180.653 0.54447C180.762 0.653363 180.871 0.980042 180.98 1.52451L181.633 5.33576H181.089C180.653 4.46462 180.327 3.70237 179.891 3.1579C179.564 2.61344 179.02 2.17786 178.475 1.85119C177.931 1.52451 177.278 1.30672 176.515 1.19783C175.753 1.08893 174.773 0.980042 173.575 0.980042H167.042V11.5427H169.764C170.744 11.5427 171.506 11.4338 172.051 11.3249C172.595 11.1071 173.031 10.8893 173.249 10.6715C173.575 10.3448 173.684 10.127 173.793 9.69148C173.902 9.3648 174.011 8.92923 174.12 8.60255H174.664V15.1361H174.229C174.12 14.7006 174.011 14.3739 173.902 14.0472C173.793 13.7205 173.575 13.3938 173.358 13.0672C173.031 12.7405 172.704 12.6316 172.16 12.4138C171.615 12.196 170.853 12.196 169.873 12.196H167.151V25.9165H174.446C175.644 25.9165 176.624 25.9165 177.495 25.8076C178.367 25.6987 179.02 25.4809 179.564 25.1543C180.109 24.8276 180.653 24.2831 180.98 23.7387C181.307 23.0853 181.742 22.3231 182.069 21.2341H182.613L182.178 25.481C182.178 26.0254 182.069 26.3521 181.851 26.461C181.742 26.5699 181.524 26.5699 181.089 26.5699H161.162V26.1343L160.835 25.9165Z" fill="black"/>
<path d="M192.632 26.1343C193.067 26.0254 193.503 25.8076 193.829 25.5898C194.156 25.3721 194.265 24.9365 194.483 24.392C194.592 23.8476 194.701 22.9764 194.701 21.7786C194.701 20.5808 194.809 19.0563 194.809 17.0962V10.0181C194.809 8.05808 194.809 6.53357 194.809 5.33575C194.809 4.13793 194.701 3.37568 194.592 2.72232C194.483 2.17786 194.265 1.74229 193.938 1.5245C193.612 1.30671 193.285 1.08893 192.74 0.980036V0.544464H203.521C205.699 0.544464 207.55 0.653357 208.966 0.980036C210.49 1.30671 211.688 1.74229 212.559 2.28675C213.43 2.83122 214.084 3.48457 214.519 4.24682C214.955 5.00907 215.172 5.88022 215.172 6.75136C215.172 7.94918 214.846 8.92922 214.301 9.69147C213.757 10.5626 212.995 11.216 212.015 11.7604C211.034 12.3049 209.946 12.7405 208.639 12.9583C207.332 13.2849 206.025 13.3938 204.61 13.3938H203.412C205.045 13.6116 206.352 14.265 207.55 15.1361C208.748 16.1162 209.619 17.5318 210.163 19.4918C210.708 21.4519 211.361 22.8675 212.123 23.8476C212.886 24.8276 213.866 25.3721 215.064 25.3721C215.608 25.3721 216.152 25.2632 216.37 25.0454C216.697 24.8276 216.915 24.6098 217.241 24.392L217.568 24.7187C217.459 24.9365 217.241 25.0454 217.132 25.2632C216.915 25.4809 216.697 25.6987 216.37 25.8076C216.044 26.0254 215.717 26.1343 215.172 26.2432C214.737 26.3521 214.192 26.461 213.648 26.461C212.777 26.461 212.015 26.3521 211.252 26.1343C210.49 25.9165 209.837 25.5898 209.183 25.0454C208.53 24.5009 207.985 23.8476 207.441 22.8675C206.897 21.9964 206.461 20.7985 206.243 19.3829C205.917 17.8584 205.59 16.7695 205.263 15.8984C204.936 15.0272 204.61 14.4828 204.174 14.0472C203.739 13.6116 203.303 13.3938 202.65 13.2849C202.105 13.176 201.343 13.176 200.472 13.176H198.839V16.6606C198.839 18.6207 198.838 20.1452 198.947 21.2341C198.947 22.4319 199.056 23.1942 199.274 23.8476C199.383 24.392 199.601 24.8276 199.927 25.0454C200.254 25.2632 200.581 25.4809 201.125 25.5898V26.0254H192.958V26.1343H192.632ZM198.621 13.0672H204.501C206.788 13.0672 208.421 12.5227 209.51 11.5427C210.599 10.5626 211.143 9.14701 211.143 7.29583C211.143 6.42468 211.035 5.55354 210.817 4.79129C210.599 4.02904 210.163 3.37568 209.619 2.83122C209.074 2.28675 208.203 1.85118 207.223 1.5245C206.134 1.19782 204.828 1.08893 203.303 1.08893H198.73V13.0672H198.621Z" fill="black"/>
<path d="M230.962 27.0054C229.22 27.0054 227.477 26.6788 225.844 25.9165C224.211 25.1543 222.795 24.2831 221.488 23.0853C220.29 21.8875 219.201 20.4719 218.439 18.8385C217.677 17.2051 217.241 15.3539 217.241 13.5027C217.241 11.6515 217.568 9.80036 218.439 8.16697C219.31 6.53358 220.181 5.11797 221.488 3.92015C222.686 2.72232 224.211 1.74229 225.844 1.08893C227.477 0.435572 229.22 0 230.962 0C232.704 0 234.446 0.326679 235.971 1.08893C237.604 1.74229 239.02 2.72232 240.327 3.92015C241.525 5.11797 242.613 6.53358 243.376 8.16697C244.138 9.80036 244.574 11.5426 244.574 13.5027C244.574 15.4628 244.247 17.2051 243.376 18.8385C242.613 20.4719 241.633 21.8875 240.327 23.0853C239.129 24.2831 237.604 25.2632 235.971 25.9165C234.446 26.5699 232.704 26.8965 230.962 27.0054ZM230.853 26.461C232.051 26.461 233.249 26.2432 234.338 25.6987C235.427 25.2632 236.407 24.5009 237.278 23.412C238.149 22.323 238.802 21.0163 239.347 19.3829C239.891 17.7495 240.109 15.7895 240.109 13.5027C240.109 11.216 239.891 9.2559 239.347 7.6225C238.802 5.98911 238.149 4.6824 237.278 3.70236C236.407 2.72232 235.427 1.96007 234.338 1.41561C233.249 0.980036 232.16 0.653357 230.962 0.653357C229.764 0.653357 228.675 0.871143 227.586 1.41561C226.497 1.85118 225.517 2.61343 224.646 3.59347C223.775 4.5735 223.122 5.88022 222.577 7.51361C222.033 9.14701 221.815 11.1071 221.815 13.3938C221.815 15.6806 222.033 17.6407 222.577 19.274C223.122 20.9074 223.775 22.2142 224.646 23.3031C225.517 24.392 226.497 25.1543 227.586 25.5898C228.566 26.1343 229.764 26.3521 230.853 26.461Z" fill="black"/>
<path d="M261.452 27.0054C259.71 27.0054 257.967 26.6788 256.334 25.9165C254.701 25.1543 253.285 24.2831 251.978 23.0853C250.78 21.8875 249.691 20.4719 248.929 18.8385C248.167 17.2051 247.731 15.3539 247.731 13.5027C247.731 11.6515 248.058 9.80036 248.929 8.16697C249.8 6.53358 250.671 5.11797 251.978 3.92015C253.176 2.72232 254.701 1.74229 256.334 1.08893C257.967 0.435572 259.71 0 261.452 0C263.194 0 264.936 0.326679 266.461 1.08893C268.094 1.74229 269.51 2.72232 270.817 3.92015C272.015 5.11797 273.103 6.53358 273.866 8.16697C274.628 9.80036 275.064 11.5426 275.064 13.5027C275.064 15.4628 274.737 17.2051 273.866 18.8385C273.103 20.4719 272.123 21.8875 270.817 23.0853C269.619 24.2831 268.094 25.2632 266.461 25.9165C264.828 26.5699 263.085 26.8965 261.452 27.0054ZM261.343 26.461C262.541 26.461 263.739 26.2432 264.828 25.6987C265.916 25.2632 266.897 24.5009 267.768 23.412C268.639 22.323 269.292 21.0163 269.837 19.3829C270.381 17.7495 270.599 15.7895 270.599 13.5027C270.599 11.216 270.381 9.2559 269.837 7.6225C269.292 5.98911 268.639 4.6824 267.768 3.70236C266.897 2.72232 265.916 1.96007 264.828 1.41561C263.739 0.980036 262.65 0.653357 261.452 0.653357C260.254 0.653357 259.165 0.871143 258.076 1.41561C256.987 1.85118 256.007 2.61343 255.136 3.59347C254.265 4.5735 253.612 5.88022 253.067 7.51361C252.523 9.14701 252.305 11.1071 252.305 13.3938C252.305 15.6806 252.523 17.6407 253.067 19.274C253.612 20.9074 254.265 22.2142 255.136 23.3031C256.007 24.392 256.987 25.1543 258.076 25.5898C259.056 26.1343 260.145 26.3521 261.343 26.461Z" fill="black"/>
<path d="M277.677 26.1343C278.113 25.9165 278.33 25.6987 278.548 25.4809C278.766 25.2632 278.875 24.9365 278.984 24.5009C279.093 24.0653 279.201 23.412 279.201 22.6497C279.201 21.8875 279.201 20.7985 279.201 19.4918V7.18693C279.201 5.88022 279.201 4.79129 279.201 4.02904C279.201 3.26679 279.093 2.72232 278.984 2.28675C278.875 1.85118 278.766 1.63339 278.548 1.41561C278.33 1.19782 278.113 1.08893 277.677 0.980036V0.544464H282.904C283.122 0.544464 283.339 0.653357 283.448 0.76225C283.557 0.871143 283.666 1.19782 283.884 1.85118L288.893 19.9274L294.229 0.653357H300V1.08893C299.673 1.19782 299.347 1.30671 299.129 1.5245C298.911 1.74229 298.802 1.96007 298.693 2.39564C298.584 2.83122 298.475 3.37568 298.475 4.13793C298.475 4.90018 298.475 5.98911 298.475 7.29582V19.9274C298.475 21.2341 298.475 22.323 298.475 23.0853C298.475 23.8475 298.584 24.392 298.693 24.8276C298.802 25.2632 299.02 25.4809 299.129 25.6987C299.347 25.9165 299.564 26.0254 300 26.1343V26.5699H293.031V26.1343C293.358 26.0254 293.684 25.9165 293.902 25.6987C294.12 25.4809 294.229 25.2632 294.338 24.8276C294.446 24.392 294.555 23.8475 294.555 23.0853C294.555 22.323 294.555 21.2341 294.555 19.9274V1.85118L287.804 26.5699H287.151L279.964 1.74229V19.3829C279.964 20.6897 279.964 21.7786 280.073 22.5408C280.181 23.3031 280.181 23.8475 280.29 24.392C280.399 24.8276 280.617 25.1543 280.944 25.372C281.27 25.5898 281.597 25.8076 282.142 26.0254V26.461H277.895L277.677 26.1343Z" fill="black"/>
</svg>
