<svg width="553" height="108" fill="none" xmlns="http://www.w3.org/2000/svg"><path fill="#fff" d="M0 0h553v108H0z"/><path d="M306.414 90.997a2.65 2.65 0 01-1.837-.623 2.467 2.467 0 01-.561-1.868V24.97a2.467 2.467 0 01.561-1.869 2.648 2.648 0 011.806-.53h6.914a2.46 2.46 0 012.679 2.087l.685 2.492a21.183 21.183 0 016.914-4.454 22.15 22.15 0 018.285-1.62 17.784 17.784 0 0114.575 6.79 28.618 28.618 0 015.419 18.344 33.344 33.344 0 01-2.678 13.86 21.802 21.802 0 01-7.257 9.125 17.946 17.946 0 01-10.527 3.114 22.36 22.36 0 01-7.474-1.245 17.959 17.959 0 01-6.011-3.426v20.929a2.622 2.622 0 01-.53 1.868 2.617 2.617 0 01-1.868.53l-9.095.031zm20.961-29.151a8.975 8.975 0 007.879-3.644 20.369 20.369 0 002.523-11.43 20.897 20.897 0 00-2.492-11.555 8.938 8.938 0 00-7.941-3.644A18.216 18.216 0 00318 34.158V59.23a17.56 17.56 0 009.344 2.647l.031-.031zm36.315 9.468a2.055 2.055 0 01-2.398-2.398V24.97a2.466 2.466 0 01.56-1.869 2.649 2.649 0 011.807-.53h6.883a2.459 2.459 0 012.678 2.087l1.246 5.108a27.296 27.296 0 017.226-5.98 15.57 15.57 0 017.225-1.775h1.339a2.8 2.8 0 011.9.53c.436.52.639 1.195.561 1.868v8.035a2.614 2.614 0 01-.53 1.807 2.467 2.467 0 01-1.868.56h-4.392c-1.8.038-3.594.246-5.357.623a26.56 26.56 0 00-5.357 1.589v31.923c.05.648-.137 1.29-.529 1.806a2.468 2.468 0 01-1.869.56h-9.125zm42.823-56.341a8.312 8.312 0 01-5.824-1.993 7.01 7.01 0 01-2.211-5.45 7.007 7.007 0 012.211-5.481 9.347 9.347 0 0111.679 0 7.012 7.012 0 012.212 5.45 7.012 7.012 0 01-2.212 5.45 8.306 8.306 0 01-5.855 2.024zm-4.578 56.372a2.055 2.055 0 01-2.398-2.398V24.971a2.467 2.467 0 01.561-1.869 2.646 2.646 0 011.806-.53h9.188a2.616 2.616 0 011.868.53c.411.533.598 1.202.53 1.869v43.976a2.613 2.613 0 01-.53 1.806 2.466 2.466 0 01-1.868.561l-9.157.031zm25.789-.031a2.055 2.055 0 01-2.398-2.398V24.97a2.466 2.466 0 01.56-1.869 2.65 2.65 0 011.807-.53h6.882a2.46 2.46 0 012.679 2.087l.779 2.585a41.335 41.335 0 019.125-4.734 25.781 25.781 0 018.284-1.432c4.909-.42 9.624 2 12.147 6.229a39.161 39.161 0 019.187-4.672 28.015 28.015 0 018.908-1.433 13.953 13.953 0 0110.371 3.738 14.175 14.175 0 013.675 10.402v33.605c.05.648-.137 1.29-.53 1.806a2.467 2.467 0 01-1.868.56h-9.063a2.055 2.055 0 01-2.398-2.397V38.27c0-4.339-1.941-6.51-5.824-6.51-3.619.04-7.186.894-10.434 2.492v34.695a2.618 2.618 0 01-.529 1.806 2.468 2.468 0 01-1.869.56h-9.157a2.056 2.056 0 01-2.398-2.397V38.27c0-4.339-1.94-6.51-5.824-6.51-3.662.022-7.269.91-10.527 2.585v34.57a2.65 2.65 0 01-.529 1.807 2.467 2.467 0 01-1.869.56l-9.187.032zm105.33 1.432a24.35 24.35 0 01-18.22-6.509 25.506 25.506 0 01-6.228-18.686 27.679 27.679 0 016.353-19.466 23.36 23.36 0 0118.095-7.07 20.743 20.743 0 0113.922 4.298 14.328 14.328 0 015.014 11.524 12.277 12.277 0 01-5.419 10.838 28.37 28.37 0 01-15.915 3.675 37.754 37.754 0 01-9.343-1.059 12.945 12.945 0 003.861 9.157 15.275 15.275 0 009.998 2.772 39.82 39.82 0 005.201-.343 65.31 65.31 0 007.039-1.495h1.027c1.081 0 1.62.738 1.62 2.211v4.392a3.952 3.952 0 01-.436 2.149 3.51 3.51 0 01-1.682 1.09 41.056 41.056 0 01-14.887 2.522zm-3.114-29.992c2.451.178 4.902-.34 7.069-1.495a5.104 5.104 0 002.212-4.547c0-4.008-2.389-6.01-7.164-6.01-6.126 0-9.664 3.758-10.62 11.274a43.62 43.62 0 008.44.778h.063z" fill="#00A8E1"/><path fill-rule="evenodd" clip-rule="evenodd" d="M180.531 89.037C163.62 101.402 139.11 108 118.006 108c-29.59 0-56.229-10.858-76.382-28.916-1.583-1.42-.165-3.356 1.735-2.25C65.11 89.39 92.001 96.941 119.78 96.941c18.734 0 39.343-3.845 58.293-11.825 2.863-1.207 5.257 1.86 2.458 3.92" fill="#00A8E1"/><path fill-rule="evenodd" clip-rule="evenodd" d="M187.561 81.057c-2.153-2.74-14.288-1.295-19.735-.654-1.659.201-1.913-1.231-.418-2.262 9.665-6.748 25.524-4.8 27.373-2.538 1.85 2.274-.481 18.046-9.563 25.573-1.394 1.156-2.724.541-2.103-.993 2.04-5.051 6.612-16.374 4.446-19.126" fill="#00A8E1"/><path fill-rule="evenodd" clip-rule="evenodd" d="M168.206 30.5v-6.56c0-.992.76-1.658 1.672-1.658h29.603c.95 0 1.71.678 1.71 1.659v5.617c-.013.943-.811 2.174-2.23 4.122l-15.34 21.728c5.701-.138 11.718.704 16.886 3.594 1.165.654 1.482 1.609 1.57 2.551v7c0 .955-1.064 2.073-2.178 1.495-9.108-4.737-21.205-5.253-31.275.05-1.026.553-2.103-.552-2.103-1.507v-6.648c0-1.068.013-2.89 1.089-4.512l17.772-25.284h-15.466c-.95 0-1.71-.666-1.71-1.646M60.22 71.43h-9.007c-.861-.062-1.545-.703-1.609-1.52V24.054c0-.918.773-1.646 1.736-1.646h8.398c.874.037 1.57.703 1.634 1.533v5.994h.165c2.191-5.793 6.308-8.495 11.856-8.495 5.637 0 9.158 2.702 11.692 8.495 2.178-5.793 7.131-8.495 12.439-8.495 3.774 0 7.904 1.546 10.425 5.014 2.85 3.858 2.267 9.463 2.267 14.377l-.013 28.94c0 .918-.772 1.66-1.735 1.66h-8.994c-.899-.063-1.621-.78-1.621-1.66V45.469c0-1.936.177-6.761-.253-8.596-.672-3.079-2.686-3.946-5.295-3.946-2.179 0-4.459 1.445-5.384 3.757-.924 2.313-.836 6.183-.836 8.785v24.304c0 .917-.772 1.659-1.735 1.659h-8.994c-.912-.063-1.621-.78-1.621-1.66l-.013-24.303c0-5.115.849-12.643-5.548-12.643-6.473 0-6.22 7.34-6.22 12.643v24.304c0 .917-.772 1.659-1.735 1.659M226.676 21.44c13.364 0 20.597 11.385 20.597 25.862 0 13.987-7.993 25.084-20.597 25.084-13.123 0-20.267-11.386-20.267-25.574 0-14.276 7.233-25.372 20.267-25.372zm.076 9.362c-6.637 0-7.055 8.973-7.055 14.565 0 5.605-.089 17.568 6.979 17.568 6.98 0 7.309-9.65 7.309-15.532 0-3.87-.164-8.495-1.342-12.165-1.014-3.192-3.028-4.436-5.891-4.436m37.85 40.628h-8.968c-.9-.062-1.622-.779-1.622-1.658L254 23.903c.076-.842.823-1.495 1.735-1.495h8.347c.786.037 1.432.565 1.609 1.281v7.013h.165c2.521-6.271 6.055-9.262 12.274-9.262 4.041 0 7.98 1.445 10.514 5.404C291 30.514 291 36.684 291 41.12v28.865c-.101.805-.849 1.446-1.735 1.446h-9.032c-.823-.063-1.507-.666-1.596-1.446V45.078c0-5.014.583-12.353-5.637-12.353-2.191 0-4.205 1.458-5.206 3.67-1.267 2.802-1.431 5.592-1.431 8.683v24.694c-.013.917-.798 1.659-1.761 1.659M144.607 49.527c0 3.48.089 6.384-1.685 9.475-1.431 2.513-3.711 4.06-6.232 4.06-3.458 0-5.485-2.615-5.485-6.473 0-7.615 6.879-8.998 13.402-8.998v1.936zm9.082 21.778c-.595.528-1.456.566-2.128.214-2.989-2.464-3.534-3.607-5.168-5.957-4.94 5.002-8.449 6.497-14.846 6.497-7.587 0-13.477-4.637-13.477-13.924 0-7.251 3.952-12.19 9.601-14.603 4.89-2.136 11.717-2.513 16.936-3.104v-1.156c0-2.124.165-4.637-1.102-6.472-1.089-1.646-3.192-2.325-5.054-2.325-3.433 0-6.486 1.747-7.233 5.366-.152.805-.747 1.596-1.571 1.634l-8.727-.93c-.735-.163-1.558-.754-1.343-1.872C121.578 24.167 131.155 21 139.718 21c4.382 0 10.108 1.156 13.566 4.449 4.383 4.059 3.965 9.475 3.965 15.369v13.924c0 4.185 1.748 6.02 3.395 8.281.57.805.696 1.772-.038 2.376-1.837 1.52-5.105 4.348-6.904 5.931l-.013-.025M26.538 49.527c0 3.48.088 6.384-1.685 9.475-1.432 2.514-3.699 4.06-6.232 4.06-3.459 0-5.473-2.615-5.473-6.473 0-7.615 6.879-8.997 13.39-8.997v1.935zm9.082 21.778c-.596.528-1.457.566-2.128.214-2.99-2.463-3.522-3.607-5.168-5.957-4.94 5.002-8.437 6.497-14.846 6.497C5.903 72.06 0 67.422 0 58.135c0-7.25 3.965-12.19 9.602-14.602 4.89-2.137 11.717-2.514 16.936-3.105v-1.156c0-2.123.164-4.637-1.09-6.471-1.102-1.647-3.205-2.325-5.054-2.325-3.433 0-6.498 1.746-7.246 5.366-.152.804-.747 1.596-1.558 1.633l-8.74-.93c-.735-.163-1.545-.754-1.343-1.872C3.521 24.167 13.085 21 21.648 21c4.383 0 10.108 1.156 13.566 4.449 4.383 4.059 3.965 9.475 3.965 15.37v13.923c0 4.185 1.748 6.02 3.395 8.282.583.804.71 1.772-.025 2.375-1.837 1.52-5.105 4.348-6.904 5.931l-.025-.025" fill="#000"/></svg>