<svg width="37" height="37" xmlns="http://www.w3.org/2000/svg"><g fill="none"><circle fill="#0076BD" cx="18.5" cy="18.5" r="18.5"/><path d="M20.181 12.285l-7.65-2.942a1.917 1.917 0 00-2.043.433l-.695.695a.48.48 0 00.047.719l6.739 5.182c-1.726 2.1-3.41 4.281-4.613 5.972l-1.995-.799a.48.48 0 00-.517.107l-1.016 1.016a.48.48 0 00.05.722l1.879 1.409c-.416.753-.563 1.268-.235 1.596.328.328.843.18 1.596-.235l1.408 1.878a.48.48 0 00.723.051l1.016-1.016a.48.48 0 00.106-.517l-.798-1.996c1.69-1.202 3.871-2.886 5.972-4.612l5.182 6.74a.481.481 0 00.72.046l.694-.695a1.917 1.917 0 00.434-2.043l-2.943-7.65c2.02-2.116 3.428-4.94 2.153-6.214-1.275-1.275-4.098.132-6.214 2.153zm4.181 1.913a.479.479 0 01-.677 0l-1.356-1.356a.479.479 0 010-.677c.393-.393 1.105-.25 1.694.338.59.59.732 1.302.34 1.695z" fill="#FFF"/></g></svg>