<?xml version="1.0" encoding="UTF-8"?>
<svg width="98px" height="20px" viewBox="0 0 98 20" version="1.1" xmlns="http://www.w3.org/2000/svg" xmlns:xlink="http://www.w3.org/1999/xlink">
    <g id="Symbols" stroke="none" stroke-width="1" fill="none" fill-rule="evenodd">
        <g id="Header-/-desktop" transform="translate(-32.000000, -42.000000)" fill="#000000">
            <g id="vrsnl-logo" transform="translate(32.000000, 42.000000)">
                <path d="M58.196124,8.418 C57.739444,8.167 56.569324,7.809 54.685764,7.343 C53.678324,7.093 53.106004,6.907 52.964884,6.788 C52.824744,6.669 52.754184,6.496 52.754184,6.269 C52.754184,6.006 52.868844,5.776 53.097184,5.579 C53.324544,5.382 53.667544,5.283 54.124224,5.283 C55.129704,5.283 56.435064,5.833 58.038344,6.931 L60.214924,1.576 C57.792364,0.525 55.434484,0 53.141284,0 C50.484504,0 48.415724,0.662 46.935924,1.988 C45.455144,3.313 44.715244,4.901 44.715244,6.752 C44.715244,7.767 44.934764,8.609 45.373804,9.278 C45.811864,9.947 46.424364,10.466 47.207384,10.836 C47.745404,11.099 48.711684,11.385 50.104264,11.696 C50.947064,11.887 51.455684,12.042 51.631104,12.161 C51.888844,12.329 52.017224,12.58 52.017224,12.914 C52.017224,13.2 51.906484,13.436 51.684024,13.621 C51.461564,13.806 51.097984,13.899 50.595244,13.899 C49.296744,13.899 47.699344,13.218 45.804024,11.857 L43.521604,17.463 C44.727004,18.036 45.593324,18.419 46.119584,18.61 C46.856544,18.884 47.687584,19.111 48.612704,19.29 C49.525084,19.457 50.472744,19.541 51.455684,19.541 C53.374524,19.541 55.048364,19.212 56.476224,18.556 C57.904084,17.899 58.936024,17.06 59.574004,16.04 C60.211984,15.018 60.530484,13.935 60.530484,12.788 C60.530484,11.774 60.313904,10.884 59.881724,10.12 C59.448564,9.356 58.887024,8.788 58.196124,8.418" id="Fill-3" />
                <path d="M80.795512,2.5343 C80.344712,1.8713 79.657732,1.2983 78.733592,0.8143 C77.808472,0.3303 76.796132,0.0893 75.696572,0.0893 C74.479412,0.0893 73.422972,0.3693 72.528232,0.9313 C71.632512,1.4923 70.810292,2.3463 70.061572,3.4923 L70.061572,0.5193 L61.530672,0.5193 L61.530672,19.0753 L70.360472,19.0753 L70.360472,9.8683 C70.360472,8.8903 70.491792,8.2273 70.755412,7.8803 C71.019032,7.5343 71.349292,7.3613 71.747172,7.3613 C72.133292,7.3613 72.454732,7.5113 72.712472,7.8093 C72.969232,8.1073 73.098592,8.5853 73.098592,9.2423 L73.098592,19.0753 L81.910752,19.0753 L81.910752,7.2003 C81.910752,6.1613 81.857832,5.3733 81.751992,4.8353 C81.564812,3.9643 81.246312,3.1963 80.795512,2.5343" id="Fill-5" />
                <polygon id="Fill-7" points="33.58068 0.5189 24.892 0.5189 24.892 19.0749 33.66888 19.0749 33.66888 12.2869 33.58068 3.1159" />
                <path d="M39.068386,0.089 C36.444926,0.089 34.318326,2.259 34.318326,4.936 C34.318326,7.614 36.444926,9.784 39.068386,9.784 C41.691846,9.784 43.818446,7.614 43.818446,4.936 C43.818446,2.259 41.691846,0.089 39.068386,0.089" id="Fill-9" />
                <path d="M14.6167,0.5189 L11.81292,8.3239 C11.58948,6.7299 11.12594,5.3569 10.50854,4.3309 C10.23316,3.8719 9.92544,3.4629 9.59518,3.1009 C9.4276,2.9169 9.25316,2.7489 9.0748,2.5879 C8.51424,2.0819 7.9037,1.6829 7.2716,1.3729 C6.39058,0.9389 5.47134,0.6729 4.59228,0.5189 L4.59228,0.5189 C4.1307,0.4379 3.68088,0.3879 3.25458,0.3589 C2.97038,0.3399 2.69598,0.3309 2.43628,0.3279 C1.00646,0.3159 4.61852778e-14,0.5189 4.61852778e-14,0.5189 L7.95172,19.0759 L15.76232,19.0759 L15.76428,19.0709 L23.71404,0.5189 L14.6167,0.5189 Z" id="Fill-11" />
                <polygon id="Fill-13" points="92.56296 12.7372 92.56296 0.5192 83.33038 0.5192 83.33038 19.0752 97.85398 19.0752 97.85398 12.7372" />
                <path d="M58.196124,8.418 C57.739444,8.167 56.569324,7.809 54.685764,7.343 C53.678324,7.093 53.106004,6.907 52.964884,6.788 C52.824744,6.669 52.754184,6.496 52.754184,6.269 C52.754184,6.006 52.868844,5.776 53.097184,5.579 C53.324544,5.382 53.667544,5.283 54.124224,5.283 C55.129704,5.283 56.435064,5.833 58.038344,6.931 L60.214924,1.576 C57.792364,0.525 55.434484,0 53.141284,0 C50.484504,0 48.415724,0.662 46.935924,1.988 C45.455144,3.313 44.715244,4.901 44.715244,6.752 C44.715244,7.767 44.934764,8.609 45.373804,9.278 C45.811864,9.947 46.424364,10.466 47.207384,10.836 C47.745404,11.099 48.711684,11.385 50.104264,11.696 C50.947064,11.887 51.455684,12.042 51.631104,12.161 C51.888844,12.329 52.017224,12.58 52.017224,12.914 C52.017224,13.2 51.906484,13.436 51.684024,13.621 C51.461564,13.806 51.097984,13.899 50.595244,13.899 C49.296744,13.899 47.699344,13.218 45.804024,11.857 L43.521604,17.463 C44.727004,18.036 45.593324,18.419 46.119584,18.61 C46.856544,18.884 47.687584,19.111 48.612704,19.29 C49.525084,19.457 50.472744,19.541 51.455684,19.541 C53.374524,19.541 55.048364,19.212 56.476224,18.556 C57.904084,17.899 58.936024,17.06 59.574004,16.04 C60.211984,15.018 60.530484,13.935 60.530484,12.788 C60.530484,11.774 60.313904,10.884 59.881724,10.12 C59.448564,9.356 58.887024,8.788 58.196124,8.418" id="Fill-28" />
                <path d="M80.795512,2.5343 C80.344712,1.8713 79.657732,1.2983 78.733592,0.8143 C77.808472,0.3303 76.796132,0.0893 75.696572,0.0893 C74.479412,0.0893 73.422972,0.3693 72.528232,0.9313 C71.632512,1.4923 70.810292,2.3463 70.061572,3.4923 L70.061572,0.5193 L61.530672,0.5193 L61.530672,19.0753 L70.360472,19.0753 L70.360472,9.8683 C70.360472,8.8903 70.491792,8.2273 70.755412,7.8803 C71.019032,7.5343 71.349292,7.3613 71.747172,7.3613 C72.133292,7.3613 72.454732,7.5113 72.712472,7.8093 C72.969232,8.1073 73.098592,8.5853 73.098592,9.2423 L73.098592,19.0753 L81.910752,19.0753 L81.910752,7.2003 C81.910752,6.1613 81.857832,5.3733 81.751992,4.8353 C81.564812,3.9643 81.246312,3.1963 80.795512,2.5343" id="Fill-29" />
                <polygon id="Fill-30" points="33.58068 0.5189 24.892 0.5189 24.892 19.0749 33.66888 19.0749 33.66888 12.2869 33.58068 3.1159" />
                <path d="M39.068386,0.089 C36.444926,0.089 34.318326,2.259 34.318326,4.936 C34.318326,7.614 36.444926,9.784 39.068386,9.784 C41.691846,9.784 43.818446,7.614 43.818446,4.936 C43.818446,2.259 41.691846,0.089 39.068386,0.089" id="Fill-31" />
                <path d="M14.6167,0.5189 L11.81292,8.3239 C11.58948,6.7299 11.12594,5.3569 10.50854,4.3309 C10.23316,3.8719 9.92544,3.4629 9.59518,3.1009 C9.4276,2.9169 9.25316,2.7489 9.0748,2.5879 C8.51424,2.0819 7.9037,1.6829 7.2716,1.3729 C6.39058,0.9389 5.47134,0.6729 4.59228,0.5189 L4.59228,0.5189 C4.1307,0.4379 3.68088,0.3879 3.25458,0.3589 C2.97038,0.3399 2.69598,0.3309 2.43628,0.3279 C1.00646,0.3159 4.61852778e-14,0.5189 4.61852778e-14,0.5189 L7.95172,19.0759 L15.76232,19.0759 L15.76428,19.0709 L23.71404,0.5189 L14.6167,0.5189 Z" id="Fill-32" />
                <polygon id="Fill-33" points="92.56296 12.7372 92.56296 0.5192 83.33038 0.5192 83.33038 19.0752 97.85398 19.0752 97.85398 12.7372" />
            </g>
        </g>
    </g>
</svg>