
<svg width="121px" height="44px" viewBox="25 61 121 44" version="1.1" xmlns="http://www.w3.org/2000/svg" xmlns:xlink="http://www.w3.org/1999/xlink">
    <!-- Generator: Sketch 42 (36781) - http://www.bohemiancoding.com/sketch -->
    <desc>Created with Sketch.</desc>
    <defs></defs>
    <g id="logo" stroke="none" stroke-width="1" fill="none" fill-rule="evenodd" transform="translate(25.000000, 61.000000)">
        <path d="M80.0728799,35.5475295 C79.7556992,35.9940636 79.5982702,36.5792218 79.5982702,37.3349544 C79.5982702,38.9822094 80.1993393,39.8062234 81.3736049,39.8062234 C81.9124767,39.8062234 82.356891,39.5673676 82.6732976,39.1563912 C82.989446,38.7438689 83.1479073,38.1231529 83.1479073,37.3349544 C83.1479073,35.718104 82.546322,34.9301632 81.3736049,34.9301632 C80.8347331,34.9301632 80.3895445,35.1357802 80.0728799,35.5475295 M76.8079054,34.2767237 L76.0783123,35.5475295 C75.6651256,35.1357802 75.1270281,34.9644327 74.4281465,34.9644327 C73.7612669,34.9644327 73.2531067,35.1700497 72.8757932,35.6168415 C72.4951247,36.0633756 72.3028548,36.6469878 72.3028548,37.4359593 C72.3028548,38.9822094 73.032448,39.7740152 74.5231201,39.7740152 C75.1897416,39.7740152 75.7608734,39.5323251 76.2359994,39.1221217 L76.8701028,40.4931594 C76.3624587,40.8028732 75.9188186,41.0113245 75.540989,41.0783176 C75.1897416,41.1811261 74.712293,41.2138496 74.2043908,41.2138496 C73.0639338,41.2138496 72.1462,40.8737312 71.4808689,40.2208071 C70.8134731,39.5323251 70.4970666,38.6047296 70.4970666,37.4359593 C70.4970666,36.271054 70.8462493,35.309962 71.5722293,34.619161 C72.3028548,33.8987285 73.3181429,33.5560335 74.5553801,33.5560335 C75.4442088,33.5560335 76.1732858,33.796693 76.8079054,34.2767237 M84.0047341,34.5859222 C84.6380633,35.2058651 84.9573087,36.1651535 84.9573087,37.3349544 C84.9573087,38.5349023 84.6380633,39.4630131 83.9732483,40.1499491 C83.3394029,40.8737312 82.4805115,41.2138496 81.3736049,41.2138496 C80.2315994,41.2138496 79.3425125,40.8737312 78.7409272,40.1499491 C78.1063077,39.4630131 77.7896431,38.5042401 77.7896431,37.3349544 C77.7896431,36.200969 78.1063077,35.309962 78.7716388,34.619161 C79.4374861,33.8987285 80.2943129,33.5560335 81.3736049,33.5560335 C82.514062,33.5560335 83.3701145,33.8987285 84.0047341,34.5859222 M92.9162486,33.7624235 C93.296401,33.6232842 93.6773276,33.5560335 94.0881915,33.5560335 C94.9150809,33.5560335 95.548152,33.796693 96.0240522,34.2427118 C96.46666,34.7255768 96.7216434,35.3419125 96.7216434,36.1651535 L96.7216434,41.0783176 L94.9765041,41.0783176 L94.9765041,36.405813 C94.9765041,35.4460093 94.5341543,34.9644327 93.6442933,34.9644327 C93.3916326,34.9644327 93.1384558,35.0332293 92.8839886,35.2058651 C92.6617814,35.3419125 92.5038362,35.5145483 92.3758284,35.718104 L92.3758284,41.0783176 L90.6637233,41.0783176 L90.6637233,36.1651535 C90.6637233,35.7879313 90.5372639,35.4797635 90.3168633,35.2741465 C90.0949142,35.0667258 89.7746365,34.9644327 89.3653211,34.9644327 C89.1415654,34.9644327 88.8891628,35.0332293 88.6334052,35.2058651 C88.3833253,35.3748937 88.1910555,35.5475295 88.0645961,35.718104 L88.0645961,41.0783176 L86.352233,41.0783176 L86.352233,33.6946575 L87.5272728,33.6946575 L87.9053605,34.3460357 C88.3833253,33.796693 88.9831041,33.5560335 89.7746365,33.5560335 C90.7574065,33.5560335 91.4885481,33.8330238 91.9979987,34.3460357 C92.217367,34.1040878 92.5038362,33.8987285 92.9162486,33.7624235 M63.8053012,38.2630653 C63.8053012,37.094295 64.6610956,36.1651535 65.7068372,36.1651535 C66.7236738,36.1651535 67.5805005,37.094295 67.5805005,38.2630653 C67.5805005,39.3947318 66.7236738,40.3212966 65.7068372,40.3212966 C64.6610956,40.3212966 63.8053012,39.3947318 63.8053012,38.2630653 M61.5855521,33.9319674 L61.5855521,40.9072277 C61.5855521,41.8005537 62.2844337,42.5217592 63.1069357,42.5217592 L99.0371403,42.5217592 C99.8601586,42.5217592 100.558266,41.8005537 100.558266,40.9072277 L100.558266,33.9319674 C100.558266,33.0430217 99.8601586,32.2839394 99.0371403,32.2839394 L63.1069357,32.2839394 C62.2844337,32.2839394 61.5855521,33.0430217 61.5855521,33.9319674" id="Fill-1" fill="#231F20"></path>
        <path d="M116.725435,25.2708445 C116.5311,25.8694012 116.33754,26.470277 116.106042,27.0559505 C116.081782,27.1188208 115.843058,27.7537084 115.806669,27.7480398 C115.787829,27.7431441 115.767182,27.7379908 115.748601,27.7338682 C115.442001,27.6681635 115.133337,27.6032318 114.827512,27.5383001 C113.603179,27.2793464 112.380652,27.0160123 111.156577,26.7575739 C110.073156,26.526448 108.989218,26.2960952 107.905539,26.0662576 C107.87715,25.4762038 107.87715,24.888469 107.853406,24.2984152 C107.826308,23.6983125 107.9107,23.10259 107.904248,22.5040333 C109.820753,22.9392302 111.736741,23.3764884 113.653504,23.8109123 C114.749572,24.0616207 115.847445,24.3125868 116.943513,24.5602033 C116.867895,24.7949365 116.795116,25.032504 116.725435,25.2708445 M108.339372,18.0755379 C108.603646,16.7967444 108.806239,15.5089327 109.11258,14.2396729 C109.265622,13.602724 109.457118,12.980462 109.659195,12.359746 C109.704359,12.2154534 110.147483,10.7828337 110.193163,10.7928826 C111.083024,10.9933463 111.96953,11.195356 112.860165,11.3942737 C113.962168,11.6426632 115.067526,11.8918256 116.171078,12.1407304 L108.237946,18.8359085 C108.270722,18.5813351 108.305047,18.327277 108.339372,18.0755379 M111.648736,7.45379657 C112.243353,6.43576053 112.830744,5.43112309 113.684216,4.60556311 C114.344385,3.96861421 115.367674,3.29430383 116.245405,3.94362066 C116.997193,4.49863196 117.408831,5.52182131 117.69943,6.37160184 C118.089131,7.49966102 118.312113,8.73748566 118.419474,9.92248889 C116.03094,9.35176 113.631309,8.82741088 111.237098,8.28296387 C111.374655,8.00623122 111.51376,7.73001389 111.648736,7.45379657 M110.359625,20.1765416 L118.582839,12.7872129 C118.595743,14.2932673 118.549805,15.8016406 118.380504,17.2971306 C118.210687,18.803958 117.939703,20.3043437 117.62949,21.7869504 C115.62498,21.3424776 113.622018,20.9000661 111.618799,20.4548203 C111.199418,20.3636067 110.778489,20.2700742 110.359625,20.1765416 M116.300376,0.154135449 C114.485813,-0.231074342 112.941719,0.846997743 111.862427,2.20412147 C110.618479,3.7660892 109.793655,5.66946359 109.12342,7.53238452 C108.233817,10.0039112 107.60694,12.5795346 107.120974,15.1587654 C106.620815,17.8098848 106.311376,20.4983657 106.222855,23.1961226 C106.178465,24.5267068 106.18053,25.8652786 106.256405,27.1943168 C106.294859,27.8529096 106.357057,28.5091834 106.451256,29.1626229 C106.49642,29.4746557 106.549843,29.7856578 106.613588,30.0948563 C106.64301,30.2494556 106.675786,30.4035395 106.712949,30.5563351 C106.7465,30.5911199 106.891025,30.5434518 106.92793,30.5341759 C108.08284,30.2881054 109.333239,30.2309037 110.512666,30.3115529 C111.778809,30.3965825 112.950235,30.7817923 114.051464,31.4102383 C114.317287,31.5614879 114.578206,31.7227864 114.831125,31.8941339 C114.961972,31.9848321 115.090496,32.0768187 115.216181,32.1708666 C115.332833,32.2546078 115.424194,32.3684959 115.551427,32.4321393 C115.885125,31.9034099 116.181917,31.3581898 116.45187,30.7951909 C116.994871,29.6694507 117.428962,28.4950118 117.824599,27.3105239 C118.665167,24.8155497 119.30598,22.2600241 119.755556,19.6658488 C120.214423,17.028901 120.508635,14.357426 120.592253,11.6833743 C120.666064,9.41179604 120.589672,7.08713869 120.0508,4.87121615 C119.566125,2.86116827 118.526577,0.627982142 116.300376,0.154135449" id="Fill-3" fill="#231F20"></path>
        <path d="M18.7407628,30.3970463 L2.53718793,30.3970463 C1.83908058,30.3970463 1.2359468,30.1587058 0.729335073,29.6779022 C0.252918744,29.1955525 0,28.6454369 0,28.0283282 C0,27.3383002 0.285953029,26.4470356 0.887796408,25.3148537 L12.4936698,3.02164229 L6.4058124,3.02164229 C4.8519106,3.02164229 3.77287665,3.29631362 3.20329332,3.81293277 C2.63164534,4.32723293 2.31523883,5.35737925 2.28323687,6.97139539 L0.349440796,6.97139539 L0.349440796,0 L14.8723964,0 C17.0606597,0 18.1701471,0.893325984 18.1701471,2.64416246 C18.1701471,3.15923562 18.0129762,3.77711728 17.662245,4.43004143 L5.67621925,27.4089005 L18.7407628,27.4089005 L18.7407628,30.3970463 Z" id="Fill-6" fill="#231F1F"></path>
        <path d="M29.4095623,25.2641699 L29.4095623,21.073242 C26.078003,21.277313 24.3976419,22.5159106 24.3976419,24.8511323 C24.3976419,26.7047772 25.0322614,27.6658692 26.3020168,27.6658692 C27.6641649,27.6658692 28.6789368,26.8444319 29.4095623,25.2641699 L29.4095623,25.2641699 Z M34.0697192,27.9083324 L31.849712,27.9083324 C30.8999763,27.9083324 30.1071535,28.1458999 29.5032455,28.664065 C28.2987845,29.5921758 27.696683,30.108022 27.6326791,30.1422915 C26.871342,30.6223222 25.9840618,30.8622087 25.0007756,30.8622087 C23.4156461,30.8622087 22.0839515,30.3463625 21.0059499,29.3159585 C19.9269159,28.2865852 19.3880442,27.0500489 19.3880442,25.6053189 C19.3880442,21.3821828 22.7487665,19.0804577 29.4095623,18.7380204 L29.4095623,16.8137751 C29.4095623,14.9609031 29.2807802,13.6207853 28.9643737,12.7934216 C28.6789368,11.96915 28.1410974,11.5589466 27.41073,11.5589466 C26.6819111,11.5589466 26.1732347,11.90293 25.9528341,12.6578896 C25.9210902,12.6919015 25.7938566,13.4819036 25.5719075,14.9609031 C25.3491841,16.4350069 24.4616458,17.2268127 22.8442562,17.2268127 L20.2763567,14.5805889 C20.3393283,12.9681188 21.0059499,11.6630435 22.2728663,10.6993748 C23.5751398,9.70401334 25.2864706,9.22398268 27.4424738,9.22398268 C29.8534605,9.22398268 31.5645332,9.84109134 32.5790471,11.010377 C33.5623332,12.2110978 34.0697192,14.2360903 34.0697192,17.0549499 L34.0697192,27.9083324 Z" id="Fill-8" fill="#231F1F"></path>
        <path d="M41.0618738,21.5914071 C41.0618738,25.7795007 42.2036213,27.841597 44.4551142,27.841597 C46.6423452,27.841597 47.7216372,25.1974346 47.7216372,19.9397718 C47.7216372,14.8939101 46.6756376,12.3497218 44.5490555,12.3497218 C43.1229035,12.3497218 41.9496702,13.7588939 41.0618738,16.6086734 L41.0618738,21.5914071 Z M36.495142,12.9683764 L37.0985338,12.9683764 C37.3829384,13.0039343 37.5736597,13.0039343 37.6694076,13.0039343 C38.9688421,13.0039343 39.8256689,12.8312984 40.3031175,12.4875728 C41.0941338,11.7653366 41.9179263,11.0454195 42.7742369,10.2899445 C43.6935191,9.567966 44.740293,9.22398268 45.9130101,9.22398268 C48.038818,9.22398268 49.7191792,10.1528665 50.955126,12.0742775 C52.1908147,13.9985228 52.8272408,16.6442312 52.8272408,20.0446417 C52.8272408,23.5499219 52.1606193,26.2626234 50.8601524,28.1868687 C49.5599436,30.0755561 47.7216372,31.0356175 45.3749126,31.0356175 C43.5985455,31.0356175 42.170845,30.3138967 41.0618738,28.9075588 L41.0618738,37.0809634 C41.0618738,37.8024265 40.8404408,38.3883577 40.4275123,38.8691613 C39.9846464,39.349965 39.4452585,39.5883055 38.8114131,39.5883055 C38.1445335,39.5883055 37.6048875,39.349965 37.1615054,38.8356648 C36.7176072,38.3540882 36.495142,37.76893 36.495142,37.0809634 L36.495142,12.9683764 Z" id="Fill-10" fill="#231F1F"></path>
        <path d="M59.3091867,21.5914071 C59.3091867,25.7795007 60.4197064,27.841597 62.7006206,27.841597 C64.889142,27.841597 65.9671436,25.1974346 65.9671436,19.9397718 C65.9671436,14.8939101 64.889142,12.3497218 62.7651407,12.3497218 C61.3395048,12.3497218 60.1974992,13.7588939 59.3091867,16.6086734 L59.3091867,21.5914071 Z M54.7427129,12.9683764 L55.3440402,12.9683764 C55.5987655,13.0039343 55.7884545,13.0039343 55.9159462,13.0039343 C57.2156389,13.0039343 58.0719495,12.8312984 58.5481077,12.4875728 C59.339124,11.7653366 60.1660134,11.0454195 60.9885155,10.2899445 C61.9410901,9.567966 62.987864,9.22398268 64.1580003,9.22398268 C66.2533547,9.22398268 67.9344901,10.1528665 69.1717273,12.0742775 C70.4079322,13.9985228 71.0095175,16.6442312 71.0095175,20.0446417 C71.0095175,23.5499219 70.3748979,26.2626234 69.0752052,28.1868687 C67.7437687,30.0755561 65.9671436,31.0356175 63.6224836,31.0356175 C61.8448261,31.0356175 60.4197064,30.3138967 59.3091867,28.9075588 L59.3091867,37.0809634 C59.3091867,37.8024265 59.0877537,38.3883577 58.6425651,38.8691613 C58.2304108,39.349965 57.691539,39.5883055 57.0269821,39.5883055 C56.3913302,39.5883055 55.8524585,39.349965 55.4083022,38.8356648 C54.9649201,38.3540882 54.7427129,37.76893 54.7427129,37.0809634 L54.7427129,12.9683764 Z" id="Fill-12" fill="#231F1F"></path>
        <path d="M84.1212895,21.967341 C84.1212895,18.7702285 84.0255417,16.6398509 83.8670803,15.6808202 C83.4551841,12.9683764 82.4396379,11.5934738 80.8870265,11.5934738 C79.6805009,11.5934738 78.8252226,12.2796368 78.3178366,13.6875206 C77.8104506,15.0624233 77.5562415,17.2270704 77.5562415,20.2144432 C77.5562415,23.0974615 77.8104506,25.1608461 78.2556392,26.4308789 C78.7614767,27.8062969 79.6154646,28.4934905 80.8547665,28.4934905 C83.0099955,28.4934905 84.1212895,26.3296164 84.1212895,21.967341 M88.6890536,20.2144432 C88.6890536,27.2912237 86.0550855,30.8622087 80.8547665,30.8622087 C75.6221873,30.8622087 72.9902839,27.2912237 72.9902839,20.2144432 C72.9902839,12.8982915 75.6221873,9.22398268 80.8547665,9.22398268 C83.2631723,9.22398268 85.1675472,10.18559 86.5947316,12.1412705 C87.9873331,14.0655158 88.6890536,16.7797632 88.6890536,20.2144432" id="Fill-14" fill="#231F1F"></path>
        <path d="M99.7993964,14.5808466 C99.7993964,12.7614711 98.8150779,11.8681451 96.8485056,11.8681451 C95.1686606,11.8681451 94.3459005,12.5545658 94.3459005,13.9972344 C94.3459005,14.8913334 95.2329226,15.8856642 97.007225,17.0552075 C97.8963119,17.6045502 98.9433438,18.3252404 100.148063,19.1484814 C101.765194,20.6967928 102.590019,22.5524991 102.590019,24.6460306 C102.590019,26.4654061 101.986111,27.976356 100.781908,29.1121452 C99.5771892,30.244327 98.0232874,30.7923813 96.0897494,30.7923813 C94.3758378,30.7923813 92.9816877,30.4862748 91.9054927,29.8312893 C90.8256845,29.1793958 90.2532623,28.3558972 90.2532623,27.4290747 C90.2532623,26.8446895 90.6656747,26.5687299 91.4904995,26.5687299 C91.7132228,26.5687299 91.9341396,26.5687299 92.092859,26.6029994 C93.3605497,27.5331715 94.5353314,28.0119139 95.6123007,28.0119139 C97.4209278,28.0119139 98.3402101,27.2914814 98.3402101,25.8467514 C98.3402101,25.0559763 97.9912854,24.3718746 97.2939523,23.7176621 C97.007225,23.4094943 96.0897494,22.7565701 94.5353314,21.6913813 C92.9816877,20.6274808 91.8719422,19.6643275 91.2365484,18.8073323 C90.4749533,17.8099095 90.0973817,16.6398509 90.0973817,15.3020521 C90.0973817,13.3793528 90.6958701,11.9031876 91.9341396,10.8372258 C93.1388587,9.77203701 94.851996,9.22398268 97.1045213,9.22398268 C98.1169706,9.22398268 99.5771892,9.49659268 101.448014,10.0495427 L101.448014,14.5808466 L99.7993964,14.5808466 Z" id="Fill-16" fill="#231F1F"></path>
        <path d="M109.041412,43.172464 C106.430155,42.8230697 104.607076,40.3657147 104.96942,37.691663 C105.329701,35.0124581 107.737848,33.1276356 110.347557,33.4790912 C112.961137,33.8310622 114.784732,36.2824909 114.425484,38.9580885 C114.064688,41.6385818 111.655508,43.523662 109.041412,43.172464 Z" id="Fill-18" fill="#231F20"></path>
    </g>
</svg>
