<?xml version="1.0" encoding="UTF-8"?><svg id="a" xmlns="http://www.w3.org/2000/svg" width="271.07" height="184" viewBox="0 0 271.07 184"><g><path d="m21.56,182.73l-.76-14.46h-7.73l-1.27,14.46H0l10.01-84.44h14.84l10.01,84.44h-13.31Zm-4.06-61.49l-3.17,35h5.45s-2.28-35-2.28-35Z"/><path d="m62.13,182.73c-2.03,0-3.17-8.24-3.17-13.06v-18.39c0-2.03-1.01-3.8-2.79-3.8h-3.17v35.25h-13.06v-84.45h17.63c6.46,0,13.7,3.8,13.7,14.84v19.27c0,3.93-2.15,7.22-5.58,9.5,3.42,2.28,5.96,5.45,5.96,9.63v17.12c0,5.32.76,9.63,1.65,13.7v.38h-11.17Zm-3.55-68.95c0-2.53-.76-3.55-2.28-3.55h-3.3v26.12h3.3c1.52,0,2.28-.89,2.28-3.55,0,0,0-19.02,0-19.02Z"/><path d="m101.17,182.73c-2.03,0-3.17-8.24-3.17-13.06v-18.39c0-2.03-1.01-3.8-2.79-3.8h-3.17v35.25h-13.06v-84.45h17.63c6.46,0,13.7,3.8,13.7,14.84v19.27c0,3.93-2.15,7.22-5.58,9.5,3.42,2.28,5.96,5.45,5.96,9.63v17.12c0,5.32.76,9.63,1.65,13.7v.38h-11.17Zm-3.55-68.95c0-2.53-.76-3.55-2.28-3.55h-3.3v26.12h3.3c1.52,0,2.28-.89,2.28-3.55,0,0,0-19.02,0-19.02Z"/><path d="m117.91,182.73v-84.45h13.06v84.44h-13.06Z"/><path d="m159.62,182.73h-12.68l-11.29-84.44h13.06l4.94,55.15,5.2-55.15h12.18l-11.42,84.44h0Z"/><path d="m190.93,182.73l-.76-14.46h-7.73l-1.27,14.46h-11.8l10.01-84.44h14.84l10.01,84.44h-13.31Zm-4.06-61.49l-3.17,35h5.45l-2.28-35Z"/><path d="m209.31,182.73v-84.45h13.06v72.27h13.57v12.18h-26.62Z"/><path d="m254.83,183.99c-10.14,0-16.36-6.34-16.36-17.63v-8.87h11.42v9.89c0,3.04,1.39,5.07,4.31,5.07s4.18-1.9,4.18-5.07c0-7.6-3.04-13.57-7.98-22.06-4.94-7.86-11.67-19.53-11.67-29.28,0-10.52,5.45-19.02,16.87-19.02,8.87,0,14.84,6.46,14.84,17.63v9.25h-11.29v-10.52c0-2.79-1.52-4.31-3.55-4.31-2.15,0-3.93,1.39-3.93,4.31,0,9.76,2.91,13.19,8.24,22.57,5.58,9.5,11.15,19.53,11.15,29.41,0,13.19-7.98,18.64-16.23,18.64h-.01Z"/></g><g><path d="m95.52,85.22l-9.5-38.16-2.91-11.53v49.7h-11.15V.79h12.43l8.36,37.91,1.86,8.67c.09.4.67.34.67-.08V.79h11.02v84.44h-10.77Z" fill="none" stroke="#000" stroke-miterlimit="10" stroke-width="1.57"/><path d="m114.17,85.22V.79h27.38v12.18h-14.33v23.07h9.5v11.53h-9.5v25.1h14.33v12.56h-27.38Z" fill="none" stroke="#000" stroke-miterlimit="10" stroke-width="1.57"/><path d="m187.96,85.22h-10.9l-4.56-46.53-5.2,46.53h-10.77L146.88.79h12.68l4.05,53.24L168.55.79h9.76l4.18,53.24L187.32.79h11.8l-11.15,84.44h0Z" fill="none" stroke="#000" stroke-miterlimit="10" stroke-width="1.57"/></g></svg>